<?xml version="1.0" standalone="no"?>
<!DOCTYPE svg PUBLIC "-//W3C//DTD SVG 20010904//EN"
 "http://www.w3.org/TR/2001/REC-SVG-20010904/DTD/svg10.dtd">
<svg version="1.0" xmlns="http://www.w3.org/2000/svg"
 width="1440.000000pt" height="1440.000000pt" viewBox="0 0 1440.000000 1440.000000"
 preserveAspectRatio="xMidYMid meet">
<metadata>
Created by potrace 1.14, written by Peter Selinger 2001-2017
</metadata>
<g transform="translate(0.000000,1440.000000) scale(0.100000,-0.100000)"
fill="#000000" stroke="none">
<path d="M5188 14395 c-1 -1 -151 -6 -333 -10 -181 -3 -366 -8 -410 -10 -388
-17 -393 -17 -585 -30 -168 -11 -224 -15 -270 -20 -25 -3 -70 -8 -100 -10 -62
-5 -121 -12 -230 -25 -100 -13 -169 -21 -205 -25 -62 -7 -365 -61 -435 -76
-25 -6 -53 -12 -62 -14 -63 -13 -246 -61 -309 -81 -42 -14 -86 -26 -97 -29
-11 -2 -29 -8 -39 -13 -10 -6 -20 -10 -23 -10 -31 -2 -290 -112 -415 -176
-259 -132 -464 -282 -665 -485 -118 -120 -140 -144 -200 -221 -19 -25 -38 -46
-42 -48 -5 -2 -8 -8 -8 -13 0 -5 -8 -18 -18 -29 -66 -77 -247 -404 -306 -555
-16 -38 -32 -78 -37 -87 -9 -18 -71 -199 -87 -258 -6 -19 -20 -69 -32 -110
-12 -41 -23 -83 -25 -93 -3 -10 -7 -27 -10 -37 -3 -10 -7 -27 -9 -37 -2 -10
-18 -85 -35 -168 -16 -82 -33 -170 -36 -195 -4 -24 -8 -47 -10 -50 -1 -3 -6
-30 -9 -61 -4 -31 -8 -65 -10 -75 -2 -11 -7 -48 -12 -84 -4 -36 -8 -67 -9 -70
-1 -3 -5 -39 -9 -80 -5 -41 -10 -82 -11 -90 -2 -8 -6 -51 -10 -95 -3 -44 -8
-98 -10 -120 -17 -193 -34 -480 -50 -850 -16 -374 -20 -963 -20 -2770 0 -1774
4 -2341 20 -2720 10 -248 17 -396 20 -445 2 -30 6 -98 9 -150 3 -52 8 -124 11
-160 3 -36 8 -90 10 -120 9 -101 18 -189 40 -388 3 -26 8 -54 10 -62 2 -8 6
-42 10 -75 3 -33 8 -67 10 -75 2 -8 6 -33 10 -55 24 -169 90 -485 125 -600 5
-16 17 -55 27 -85 9 -30 18 -63 20 -72 7 -45 112 -308 172 -433 135 -281 295
-509 506 -720 71 -72 144 -141 160 -155 291 -239 591 -402 975 -530 162 -53
411 -118 555 -144 160 -29 216 -38 249 -42 22 -3 42 -7 46 -9 3 -2 37 -6 75
-10 39 -4 72 -9 75 -10 3 -2 33 -6 65 -10 33 -3 74 -8 90 -10 17 -2 57 -7 90
-10 33 -3 74 -8 90 -10 17 -2 75 -7 130 -10 55 -4 107 -9 116 -10 8 -2 67 -6
130 -10 63 -4 137 -8 164 -10 44 -3 140 -7 455 -20 681 -29 4833 -29 5485 0
44 2 143 6 220 10 175 7 374 19 500 30 22 1 78 6 125 10 47 3 99 8 115 10 17
1 59 5 95 9 36 3 74 8 85 10 11 2 52 7 90 11 39 4 78 9 89 11 10 2 39 6 65 9
25 3 71 9 101 15 30 5 71 12 90 15 19 3 62 10 95 16 33 6 71 13 85 15 14 3 33
7 42 10 10 3 30 8 45 10 16 3 46 10 68 15 22 5 51 12 65 15 111 23 365 102
520 161 8 4 17 7 20 8 31 10 122 52 245 115 193 97 366 210 520 340 88 75 274
269 349 365 48 61 91 115 96 122 6 7 10 14 10 16 0 3 18 32 40 65 79 118 148
249 236 449 60 135 175 499 200 632 3 13 12 54 20 90 16 72 19 86 29 146 3 22
11 59 16 83 5 24 12 62 15 85 2 23 7 53 9 67 10 56 53 414 60 495 1 22 6 72 9
110 13 138 16 171 21 265 3 52 8 127 10 165 34 572 40 1011 40 3170 0 1750 -5
2404 -20 2750 -13 295 -17 386 -20 435 -2 30 -6 98 -9 150 -3 52 -8 124 -11
160 -3 36 -8 90 -10 120 -3 30 -7 75 -9 100 -3 25 -8 74 -12 110 -3 36 -7 72
-9 80 -1 8 -6 47 -10 85 -4 39 -9 77 -10 86 -2 9 -6 40 -10 70 -23 188 -104
589 -145 724 -5 17 -23 75 -40 130 -78 251 -209 547 -325 730 -60 95 -176 253
-234 320 -42 48 -244 249 -288 287 -46 40 -209 159 -273 200 -317 203 -691
350 -1145 449 -125 27 -445 83 -543 94 -26 3 -63 8 -82 10 -19 3 -60 7 -90 10
-30 3 -71 7 -90 10 -43 6 -112 13 -210 20 -41 3 -95 8 -120 10 -129 13 -424
28 -760 41 -102 3 -234 8 -295 11 -126 5 -4431 13 -4437 8z"/>
</g>
</svg>
